# xmcd
#
# Track frame offsets: 
#        150
#        41022
#        68832
#        94234
#        111787
#        148079
#        176409
#        210928
#        222020
#        240815
#        264640
#        276016
#        293890
#        307385
#
# Disc length: 4470 seconds
#
# Revision: 5
# Processed by: cddbd v1.5.2PL0 Copyright (c) Steve Scherf et al.
# Submitted via: ExactAudioCopy v1.1
#
DISCID=d011740e
DTITLE=Funkadelic - Funkadelic
DYEAR=1970
DGENRE=Funk
TTITLE0=Mommy, What's A Funkadelic
TTITLE1=I'll Bet You
TTITLE2=Music For My Mother
TTITLE3=I Got A Thing, You Got A Thing, Everybody's Got A Thing
TTITLE4=Good Old Music
TTITLE5=Qualify And Satisfy
TTITLE6=What Is Soul
TTITLE7=Can't Shake It Loose (mono)
TTITLE8=I'll Bet You (mono single version)
TTITLE9=Music For My Mother (mono single version)
TTITLE10=As Good As I Can Feel (mono)
TTITLE11=Open Our Eyes (stereo)
TTITLE12=Qualify And Satisfy (stereo single version)
TTITLE13=Music For My Mother (inst) (mono single version)
EXTD=YEAR: 1970
EXTT0=
EXTT1=
EXTT2=
EXTT3=
EXTT4=
EXTT5=
EXTT6=
EXTT7=
EXTT8=
EXTT9=
EXTT10=
EXTT11=
EXTT12=
EXTT13=
PLAYORDER=
